<?xml version="1.0" encoding="UTF-8" standalone="no"?><!DOCTYPE svg PUBLIC "-//W3C//DTD SVG 1.1//EN" "http://www.w3.org/Graphics/SVG/1.1/DTD/svg11.dtd"><svg width="100%" height="100%" viewBox="0 0 570 570" version="1.1" xmlns="http://www.w3.org/2000/svg" xmlns:xlink="http://www.w3.org/1999/xlink" xml:space="preserve" style="fill-rule:evenodd;clip-rule:evenodd;stroke-linecap:round;stroke-linejoin:round;stroke-miterlimit:1.5;"><g><g><path d="M541.402,295.93l-255,255l-255,-255l255,-255l255,255Z" style="fill:#fff;"/><clipPath id="_clip1"><path d="M541.402,295.93l-255,255l-255,-255l255,-255l255,255Z"/></clipPath><g clip-path="url(#_clip1)"><rect x="285" y="0" width="349.937" height="615.921" style="fill:#d3d3d3;"/></g><path d="M511.402,265.93l-225,225l-225,-225l225,-225l225,225Z" style="fill:#ef4056;"/><clipPath id="_clip2"><path d="M511.402,265.93l-225,225l-225,-225l225,-225l225,225Z"/></clipPath><g clip-path="url(#_clip2)"><rect x="286.402" y="-45" width="283.598" height="630" style="fill:#ba1042;"/></g><path d="M511.402,325.93l-225,225l-225,-225l225,-225l225,225Z" style="fill:#ef4056;"/><clipPath id="_clip3"><path d="M511.402,325.93l-225,225l-225,-225l225,-225l225,225Z"/></clipPath><g clip-path="url(#_clip3)"><rect x="286.402" y="-45" width="283.598" height="630" style="fill:#ba1042;"/></g><path d="M286.402,100.93l-195,195l390,0l-195,-195Z" style="fill:#222;"/><path d="M285,152.73l-143.201,143.2l286.402,0l-143.201,-143.2Z" style="fill:#fff;"/></g><path d="M541.402,295.93l-255,255l-255,-255l255,-255l255,255Z" style="fill:none;stroke:#ef4056;stroke-width:8px;"/></g></svg>