<?xml version="1.0" encoding="UTF-8" standalone="no"?><!DOCTYPE svg PUBLIC "-//W3C//DTD SVG 1.1//EN" "http://www.w3.org/Graphics/SVG/1.1/DTD/svg11.dtd"><svg width="100%" height="100%" viewBox="0 0 428 428" version="1.1" xmlns="http://www.w3.org/2000/svg" xmlns:xlink="http://www.w3.org/1999/xlink" xml:space="preserve" style="fill-rule:evenodd;clip-rule:evenodd;stroke-linejoin:round;stroke-miterlimit:1.41421;"><g><path id="v" d="M257.864,20.375c49.569,0 89.755,40.182 89.757,89.752c0,0 0,0 0,0c0,68.864 -64.392,127.723 -134.095,128.226c-61.989,0.447 -133.647,-56.176 -133.647,-128.226c0,0 0,0 0,-0.001c0.002,-49.569 40.187,-89.752 89.757,-89.751c28.414,0 59.814,0 88.228,0Zm-98.11,49.116l53.772,51.088l53.828,-51.088c24.091,-10.117 34.6,17.383 24.706,25.433l-70.093,66.907c-2.292,2.18 -14.533,2.18 -16.824,0l-70.094,-66.908c-9.447,-8.888 2.85,-36.836 24.705,-25.432Z" style="fill:#ef4056;"/><rect x="126.36" y="47.126" width="181.524" height="60.601" style="fill:#ef4056;"/><g><rect x="61.939" y="134.744" width="284.57" height="179.581" style="fill:#fff;"/><path d="M59.071,69.585c-20.43,1.331 -32.799,12.994 -32.799,33.738l0,124.228c0,100.901 100.354,180.197 187.165,179.571c97.613,-0.705 187.791,-83.132 187.791,-179.571l0,-124.228c0,-20.822 -13.151,-32.564 -33.738,-33.738l-308.419,0l0,0Zm79.062,101.057l75.304,71.547l75.382,-71.547c33.738,-14.168 48.454,24.345 34.599,35.618l-98.161,93.698c-3.209,3.054 -20.352,3.054 -23.561,0l-98.162,-93.699c-13.23,-12.447 3.992,-51.586 34.599,-35.617Z" style="fill:#fff;fill-rule:nonzero;"/></g><g><rect x="78.461" y="146.02" width="253.6" height="160.037" style="fill:#fff;"/><path d="M75.905,87.953c-18.206,1.186 -29.229,11.58 -29.229,30.066l0,110.708c0,89.92 89.432,160.585 166.795,160.027c86.99,-0.627 167.353,-74.084 167.353,-160.027l0,-110.708c0,-18.556 -11.72,-29.02 -30.066,-30.066l-274.853,0l0,0Zm70.457,90.059l67.109,63.76l67.178,-63.76c30.066,-12.626 43.181,21.695 30.834,31.741l-87.478,83.501c-2.86,2.721 -18.137,2.721 -20.997,0l-87.479,-83.502c-11.79,-11.092 3.558,-45.971 30.834,-31.74Z" style="fill:#ef4056;fill-rule:nonzero;"/></g></g></svg>